<svg id="Capa_1" enable-background="new 0 0 497 497" height="512" viewBox="0 0 497 497" width="512" xmlns="http://www.w3.org/2000/svg"><g><path d="m466.945 437h-30l30 60h22.5c4.142 0 7.5-3.358 7.5-7.5v-22.5c0-16.5-13.5-30-30-30z" fill="#728192"/><path d="m436.945 437h-36.698v60h66.698v-30c0-16.5-13.5-30-30-30z" fill="#8c98a7"/><path d="m415.247 317v90c24.853 0 45-20.147 45-45s-20.147-45-45-45z" fill="#728192"/><path d="m430.247 362c0-24.853-6.716-45-15-45-24.853 0-45 20.147-45 45s20.147 45 45 45c8.284 0 15-20.147 15-45z" fill="#8c98a7"/><path d="m400.247 437h-30l30 60h30v-30c0-16.5-13.5-30-30-30z" fill="#89c1ff"/><path d="m370.247 437h-36.698v60h66.698v-30c0-16.5-13.5-30-30-30z" fill="#b8d8ff"/><path d="m348.549 317v90c24.853 0 45-20.147 45-45s-20.147-45-45-45z" fill="#89c1ff"/><path d="m363.549 362c0-24.853-6.716-45-15-45-24.853 0-45 20.147-45 45s20.147 45 45 45c8.284 0 15-20.147 15-45z" fill="#b8d8ff"/><path d="m333.549 437h-30l30 60h30v-30c0-16.5-13.5-30-30-30z" fill="#60ba4d"/><path d="m303.549 437h-36.698v60h66.698v-30c0-16.5-13.5-30-30-30z" fill="#85cf75"/><path d="m281.851 317v90c24.853 0 45-20.147 45-45s-20.147-45-45-45z" fill="#60ba4d"/><path d="m296.851 362c0-24.853-6.716-45-15-45-24.853 0-45 20.147-45 45s20.147 45 45 45c8.284 0 15-20.147 15-45z" fill="#85cf75"/><path d="m266.851 437h-30l30 60h30v-30c0-16.5-13.5-30-30-30z" fill="#ffd17e"/><path d="m236.851 437h-36.698v60h66.698v-30c0-16.5-13.5-30-30-30z" fill="#ffeac3"/><path d="m215.153 317v90c24.853 0 45-20.147 45-45s-20.147-45-45-45z" fill="#ffd17e"/><path d="m230.153 362c0-24.853-6.716-45-15-45-24.853 0-45 20.147-45 45s20.147 45 45 45c8.284 0 15-20.147 15-45z" fill="#ffeac3"/><path d="m200.153 437h-30l30 60h30v-30c0-16.5-13.5-30-30-30z" fill="#ff9441"/><path d="m170.153 437h-36.698v60h66.698v-30c0-16.5-13.5-30-30-30z" fill="#ffb739"/><path d="m148.455 317v90c24.853 0 45-20.147 45-45s-20.147-45-45-45z" fill="#ff9441"/><path d="m163.455 362c0-24.853-6.716-45-15-45-24.853 0-45 20.147-45 45s20.147 45 45 45c8.284 0 15-20.147 15-45z" fill="#ffb739"/><path d="m133.455 437h-30l30 60h30v-30c0-16.5-13.5-30-30-30z" fill="#ff4c50"/><path d="m30.055 437c-16.5 0-30 13.5-30 30v22.5c0 4.142 3.358 7.5 7.5 7.5h22.5l30-60z" fill="#ff9441"/><path d="m103.455 437h-43.4c-16.5 0-30 13.5-30 30v30h103.4v-30c0-16.5-13.5-30-30-30z" fill="#ff7149"/><path d="m81.757 317v90c24.853 0 45-20.147 45-45s-20.147-45-45-45z" fill="#ff4c50"/><path d="m96.757 362c0-24.853-6.716-45-15-45-24.853 0-45 20.147-45 45s20.147 45 45 45c8.284 0 15-20.147 15-45z" fill="#ff7149"/><path d="m415.247 210h-30l15 30v32c0 8.284 6.716 15 15 15s15-6.716 15-15v-47c0-8.284-6.716-15-15-15z" fill="#c0c8d2"/><path d="m385.247 210h-303.49c-8.284 0-15 6.716-15 15v47c0 8.284 6.716 15 15 15s15-6.716 15-15v-32h36.698v32c0 8.284 6.716 15 15 15s15-6.716 15-15v-32h36.698v32c0 8.284 6.716 15 15 15s15-6.716 15-15v-32h36.698v32c0 8.284 6.716 15 15 15s15-6.716 15-15v-32h36.698v32c0 8.284 6.716 15 15 15s15-6.716 15-15v-32h36.698v-15c0-8.284-6.716-15-15-15z" fill="#dae0e7"/><path d="m301.278 120h-30l30 60h22.5c4.142 0 7.5-3.358 7.5-7.5v-22.5c0-16.5-13.5-30-30-30z" fill="#1b74d6"/><path d="m195.612 120c-16.5 0-30 13.5-30 30v22.5c0 4.142 3.358 7.5 7.5 7.5h22.5l30-60z" fill="#54a5ff"/><path d="m271.278 120h-45.667c-16.5 0-30 13.5-30 30v30h105.666l.001-30c0-16.5-13.5-30-30-30z" fill="#1e8aff"/><path d="m248.116 0v90c24.853 0 45-20.147 45-45s-20.147-45-45-45z" fill="#1b74d6"/><path d="m263.116 45c0-24.853-6.716-45-15-45-24.853 0-45 20.147-45 45s20.147 45 45 45c8.284 0 15-20.147 15-45z" fill="#1e8aff"/></g></svg>